<svg width="40" height="40" viewBox="0 0 40 40" fill="none" xmlns="http://www.w3.org/2000/svg">
<path d="M29.3281 20C29.3281 20.2859 29.2145 20.5602 29.0123 20.7623C28.8102 20.9645 28.5359 21.0781 28.25 21.0781H11.75C11.4641 21.0781 11.1898 20.9645 10.9877 20.7623C10.7855 20.5602 10.6719 20.2859 10.6719 20C10.6719 19.7141 10.7855 19.4398 10.9877 19.2377C11.1898 19.0355 11.4641 18.9219 11.75 18.9219H28.25C28.5359 18.9219 28.8102 19.0355 29.0123 19.2377C29.2145 19.4398 29.3281 19.7141 29.3281 20ZM28.25 15.0781H11.75C11.4641 15.0781 11.1898 14.9645 10.9877 14.7623C10.7855 14.5602 10.6719 14.2859 10.6719 14C10.6719 13.7141 10.7855 13.4398 10.9877 13.2377C11.1898 13.0355 11.4641 12.9219 11.75 12.9219H28.25C28.5359 12.9219 28.8102 13.0355 29.0123 13.2377C29.2145 13.4398 29.3281 13.7141 29.3281 14C29.3281 14.2859 29.2145 14.5602 29.0123 14.7623C28.8102 14.9645 28.5359 15.0781 28.25 15.0781ZM11.75 24.9219H28.25C28.5359 24.9219 28.8102 25.0355 29.0123 25.2377C29.2145 25.4398 29.3281 25.7141 29.3281 26C29.3281 26.2859 29.2145 26.5602 29.0123 26.7623C28.8102 26.9645 28.5359 27.0781 28.25 27.0781H11.75C11.4641 27.0781 11.1898 26.9645 10.9877 26.7623C10.7855 26.5602 10.6719 26.2859 10.6719 26C10.6719 25.7141 10.7855 25.4398 10.9877 25.2377C11.1898 25.0355 11.4641 24.9219 11.75 24.9219Z" fill="#475569" stroke="#475569" stroke-width="0.09375"/>
</svg>
